<svg id="_2018_Version" data-name="2018 Version" xmlns="http://www.w3.org/2000/svg" viewBox="0 0 129.254 50.38">
  <title>NANO-33-BLE-Sense-with-headers</title>
  <path d="M234.218,411.875v50.378H356.565V411.875ZM237.824,461a2.339,2.339,0,1,1,2.338-2.338A2.339,2.339,0,0,1,237.824,461Zm0-43.182a2.339,2.339,0,1,1,2.338-2.338A2.339,2.339,0,0,1,237.824,417.818ZM352.973,461a2.339,2.339,0,1,1,2.34-2.338A2.337,2.337,0,0,1,352.973,461Zm0-43.182a2.339,2.339,0,1,1,2.34-2.338A2.337,2.337,0,0,1,352.973,417.818Z" transform="translate(-227.311 -411.875)" fill="#008b9c"/>
  <g id="USB">
    <g>
      <path d="M16.3,20.406h4.143a.185.185,0,0,1,.185.185V21.7a.185.185,0,0,1-.185.185H16.3a.185.185,0,0,1-.185-.185V20.59A.184.184,0,0,1,16.3,20.406Z" fill="#dadada"/>
      <path d="M247.759,434.409h-4.144a.185.185,0,0,0-.185.183v1.113a.187.187,0,0,0,.185.187h4.144a.185.185,0,0,0,.183-.187v-1.113A.182.182,0,0,0,247.759,434.409Z" transform="translate(-227.311 -411.875)" fill="#dadada"/>
      <path d="M16.3,24.661h4.144a.185.185,0,0,1,.185.185V25.96a.183.183,0,0,1-.183.183H16.3a.183.183,0,0,1-.183-.183V24.844A.183.183,0,0,1,16.3,24.661Z" fill="#dadada"/>
      <path d="M16.3,26.792h4.146a.183.183,0,0,1,.183.183v1.113a.185.185,0,0,1-.185.185H16.3a.185.185,0,0,1-.185-.185V26.975A.183.183,0,0,1,16.3,26.792Z" fill="#dadada"/>
      <path d="M16.3,28.92h4.142a.185.185,0,0,1,.185.185v1.113a.185.185,0,0,1-.185.185H16.3a.183.183,0,0,1-.183-.183V29.105A.185.185,0,0,1,16.3,28.92Z" fill="#dadada"/>
      <g>
        <rect y="13.272" width="18.264" height="23.835" fill="silver"/>
        <polygon points="16.438 37.107 18.264 37.107 18.264 37.068 18.264 13.337 18.264 13.272 16.438 13.272 16.438 13.337 16.438 13.337 16.438 37.107" fill="#b2b2b2"/>
        <polygon points="12.785 37.107 14.611 37.107 14.611 37.068 14.611 13.337 14.611 13.272 12.785 13.272 12.785 13.337 12.785 13.337 12.785 37.107" fill="#b2b2b2"/>
        <polygon points="9.132 37.107 10.958 37.107 10.958 37.068 10.958 13.337 10.958 13.272 9.132 13.272 9.132 13.337 9.132 13.337 9.132 37.107" fill="#b2b2b2"/>
        <polygon points="5.479 37.107 7.306 37.107 7.306 37.068 7.306 13.337 7.306 13.272 5.479 13.272 5.479 13.337 5.479 13.337 5.479 37.107" fill="#b2b2b2"/>
        <polygon points="1.826 37.107 3.653 37.107 3.653 37.068 3.653 13.337 3.653 13.272 1.826 13.272 1.826 13.337 1.826 13.337 1.826 37.107" fill="#b2b2b2"/>
      </g>
    </g>
  </g>
  <g>
    <rect x="46.32" y="29.995" width="10.231" height="0.998" fill="#8ac2cd"/>
    <g>
      <rect x="47.967" y="26.973" width="0.998" height="1.866" fill="#8ac2cd"/>
      <rect x="49.933" y="26.973" width="0.998" height="1.866" fill="#8ac2cd"/>
      <rect x="51.9" y="26.973" width="0.998" height="1.866" fill="#8ac2cd"/>
      <rect x="53.867" y="26.973" width="0.998" height="1.866" fill="#8ac2cd"/>
    </g>
    <rect x="46.32" y="31.869" width="10.231" height="0.998" fill="#8ac2cd"/>
    <rect x="46.32" y="33.743" width="10.231" height="0.998" fill="#8ac2cd"/>
    <rect x="46.32" y="35.617" width="10.231" height="0.998" fill="#8ac2cd"/>
    <rect x="46.32" y="37.491" width="10.231" height="0.998" fill="#8ac2cd"/>
    <rect x="46.32" y="39.365" width="10.231" height="0.998" fill="#8ac2cd"/>
    <polygon points="55.529 27.906 54.557 27.906 54.557 27.906 47.327 27.909 47.324 29.19 47.324 29.19 47.304 42.052 48.275 42.052 48.275 42.052 54.536 42.05 54.536 42.052 55.505 42.049 55.529 27.906" fill="#b2b2b2"/>
  </g>
  <g id="LED">
    <g>
      <rect x="236.607" y="452.222" width="6.321" height="2.518" transform="translate(252.224 495.087) rotate(180)" fill="#b2b2b2"/>
      <path d="M241.708,453.48a1.944,1.944,0,1,1-1.944-1.943A1.945,1.945,0,0,1,241.708,453.48Z" transform="translate(-227.311 -411.875)" fill="#eba900"/>
    </g>
  </g>
  <g id="LED-2" data-name="LED">
    <g>
      <rect x="236.607" y="419.39" width="6.321" height="2.518" transform="translate(252.224 429.422) rotate(180)" fill="#b2b2b2"/>
      <path d="M241.708,420.648a1.944,1.944,0,1,1-1.944-1.944A1.944,1.944,0,0,1,241.708,420.648Z" transform="translate(-227.311 -411.875)" fill="#eba900"/>
    </g>
  </g>
  <g id="Artwork_12" data-name="Artwork 12">
    <rect x="43.466" y="10.787" width="2.243" height="4.525" fill="#b2b2b2"/>
    <rect x="49.193" y="10.787" width="2.243" height="4.525" fill="#b2b2b2"/>
    <path d="M276.749,426.673a.877.877,0,0,0,.874-.873v-1.75a.878.878,0,0,0-.874-.876h-.244v3.5Z" transform="translate(-227.311 -411.875)" fill="#8b7866"/>
    <path d="M272.776,423.174a.879.879,0,0,0-.875.876v1.75a.877.877,0,0,0,.875.873h.244v-3.5Z" transform="translate(-227.311 -411.875)" fill="#8b7866"/>
    <rect x="45.709" y="11.3" width="3.484" height="3.499"/>
  </g>
  <g id="Artwork_12-2" data-name="Artwork 12">
    <rect x="22.975" y="29.58" width="2.243" height="4.525" fill="#b2b2b2"/>
    <rect x="28.702" y="29.58" width="2.243" height="4.525" fill="#b2b2b2"/>
    <path d="M256.258,445.466a.877.877,0,0,0,.874-.874v-1.749a.878.878,0,0,0-.874-.876h-.245v3.5Z" transform="translate(-227.311 -411.875)" fill="#8b7866"/>
    <path d="M252.285,441.967a.88.88,0,0,0-.876.876v1.749a.879.879,0,0,0,.876.874h.244v-3.5Z" transform="translate(-227.311 -411.875)" fill="#8b7866"/>
    <rect x="25.218" y="30.093" width="3.484" height="3.499"/>
  </g>
  <g id="Disegno_5" data-name="Disegno 5">
    <g>
      <g>
        <rect x="24.303" y="21.658" width="6.642" height="4.376" fill="#008b9c"/>
        <rect x="24.303" y="21.658" width="6.642" height="4.376"/>
      </g>
      <rect x="24.871" y="25.371" width="1.147" height="3.164" fill="#b2b2b2"/>
      <rect x="29.23" y="25.371" width="1.147" height="3.164" fill="#b2b2b2"/>
      <rect x="24.871" y="19.685" width="1.147" height="3.165" fill="#b2b2b2"/>
      <rect x="29.23" y="19.685" width="1.147" height="3.165" fill="#b2b2b2"/>
    </g>
  </g>
  <g id="Disegno_8" data-name="Disegno 8">
    <path d="M281.473,427.144h1.845v-.007a.9.9,0,0,0,0-1.807v-.007h-1.845a.91.91,0,1,0,0,1.82Z" transform="translate(-227.311 -411.875)" fill="#b2b2b2"/>
    <g>
      <rect x="54.406" y="13.45" width="1.346" height="1.821" fill="#8b7866"/>
      <rect x="54.406" y="13.45" width="1.346" height="1.821" fill="#8b7866"/>
      <rect x="54.406" y="13.45" width="1.346" height="1.821" fill="#8b7866"/>
      <rect x="54.406" y="13.45" width="1.346" height="1.821" fill="#8b7866"/>
    </g>
  </g>
  <g id="Disegno_8-2" data-name="Disegno 8">
    <path d="M284.679,425.146h1.846v-.008a.9.9,0,0,0,0-1.806v-.007h-1.846a.91.91,0,0,0,0,1.82Z" transform="translate(-227.311 -411.875)" fill="#b2b2b2"/>
    <g>
      <rect x="57.612" y="11.452" width="1.346" height="1.821" fill="#8b7866"/>
      <rect x="57.612" y="11.452" width="1.346" height="1.821" fill="#8b7866"/>
      <rect x="57.612" y="11.452" width="1.346" height="1.821" fill="#8b7866"/>
      <rect x="57.612" y="11.452" width="1.346" height="1.821" fill="#8b7866"/>
    </g>
  </g>
  <g id="Disegno_8-3" data-name="Disegno 8">
    <path d="M290.2,421.282h1.845v-.007a.9.9,0,0,0,0-1.807v-.006H290.2a.91.91,0,1,0,0,1.82Z" transform="translate(-227.311 -411.875)" fill="#b2b2b2"/>
    <g>
      <rect x="63.129" y="7.587" width="1.346" height="1.821" fill="#8b7866"/>
      <rect x="63.129" y="7.587" width="1.346" height="1.821" fill="#8b7866"/>
      <rect x="63.129" y="7.587" width="1.346" height="1.821" fill="#8b7866"/>
      <rect x="63.129" y="7.587" width="1.346" height="1.821" fill="#8b7866"/>
    </g>
  </g>
  <g id="Disegno_8-4" data-name="Disegno 8">
    <path d="M280.821,437.45h1.845v-.008a.9.9,0,0,0,0-1.806v-.007h-1.845a.91.91,0,1,0,0,1.82Z" transform="translate(-227.311 -411.875)" fill="#b2b2b2"/>
    <g>
      <rect x="53.754" y="23.756" width="1.346" height="1.821" fill="#8b7866"/>
      <rect x="53.754" y="23.756" width="1.346" height="1.821" fill="#8b7866"/>
      <rect x="53.754" y="23.756" width="1.346" height="1.821" fill="#8b7866"/>
      <rect x="53.754" y="23.756" width="1.346" height="1.821" fill="#8b7866"/>
    </g>
  </g>
  <g id="Disegno_8-5" data-name="Disegno 8">
    <path d="M296.492,421.282h1.846v-.007a.9.9,0,0,0,0-1.807v-.006h-1.846a.91.91,0,1,0,0,1.82Z" transform="translate(-227.311 -411.875)" fill="#b2b2b2"/>
    <g>
      <rect x="69.425" y="7.587" width="1.346" height="1.821" fill="#8b7866"/>
      <rect x="69.425" y="7.587" width="1.346" height="1.821" fill="#8b7866"/>
      <rect x="69.425" y="7.587" width="1.346" height="1.821" fill="#8b7866"/>
      <rect x="69.425" y="7.587" width="1.346" height="1.821" fill="#8b7866"/>
    </g>
  </g>
  <g id="Disegno_8-6" data-name="Disegno 8">
    <path d="M248.692,421.025h1.845v-.007a.9.9,0,0,0,0-1.807v-.006h-1.845a.91.91,0,0,0,0,1.82Z" transform="translate(-227.311 -411.875)" fill="#b2b2b2"/>
    <g>
      <rect x="21.625" y="7.33" width="1.346" height="1.821" fill="#8b7866"/>
      <rect x="21.625" y="7.33" width="1.346" height="1.821" fill="#8b7866"/>
      <rect x="21.625" y="7.33" width="1.346" height="1.821" fill="#8b7866"/>
      <rect x="21.625" y="7.33" width="1.346" height="1.821" fill="#8b7866"/>
    </g>
  </g>
  <g id="Disegno_8-7" data-name="Disegno 8">
    <path d="M253.032,448.44h1.845v-.007a.9.9,0,0,0,0-1.807v-.006h-1.845a.91.91,0,1,0,0,1.819Z" transform="translate(-227.311 -411.875)" fill="#b2b2b2"/>
    <g>
      <rect x="25.965" y="34.746" width="1.346" height="1.821" fill="#8b7866"/>
      <rect x="25.965" y="34.746" width="1.346" height="1.821" fill="#8b7866"/>
      <rect x="25.965" y="34.746" width="1.346" height="1.821" fill="#8b7866"/>
      <rect x="25.965" y="34.746" width="1.346" height="1.821" fill="#8b7866"/>
    </g>
  </g>
  <g id="Disegno_8-8" data-name="Disegno 8">
    <path d="M247.053,454.114H248.9v-.007a.9.9,0,0,0,0-1.807v-.007h-1.845a.91.91,0,1,0,0,1.82Z" transform="translate(-227.311 -411.875)" fill="#b2b2b2"/>
    <g>
      <rect x="19.986" y="40.42" width="1.346" height="1.821" fill="#8b7866"/>
      <rect x="19.986" y="40.42" width="1.346" height="1.821" fill="#8b7866"/>
      <rect x="19.986" y="40.42" width="1.346" height="1.821" fill="#8b7866"/>
      <rect x="19.986" y="40.42" width="1.346" height="1.821" fill="#8b7866"/>
    </g>
  </g>
  <g id="Disegno_8-9" data-name="Disegno 8">
    <path d="M265.216,428h1.846v-.008a.9.9,0,0,0,0-1.806v-.007h-1.846a.91.91,0,0,0,0,1.82Z" transform="translate(-227.311 -411.875)" fill="#b2b2b2"/>
    <g>
      <rect x="38.149" y="14.301" width="1.346" height="1.821" fill="#8b7866"/>
      <rect x="38.149" y="14.301" width="1.346" height="1.821" fill="#8b7866"/>
      <rect x="38.149" y="14.301" width="1.346" height="1.821" fill="#8b7866"/>
      <rect x="38.149" y="14.301" width="1.346" height="1.821" fill="#8b7866"/>
    </g>
  </g>
  <g id="Disegno_8-10" data-name="Disegno 8">
    <path d="M265.216,424.8h1.846v-.007a.9.9,0,0,0,0-1.807v-.006h-1.846a.91.91,0,0,0,0,1.82Z" transform="translate(-227.311 -411.875)" fill="#b2b2b2"/>
    <g>
      <rect x="38.149" y="11.1" width="1.346" height="1.821" fill="#8b7866"/>
      <rect x="38.149" y="11.1" width="1.346" height="1.821" fill="#8b7866"/>
      <rect x="38.149" y="11.1" width="1.346" height="1.821" fill="#8b7866"/>
      <rect x="38.149" y="11.1" width="1.346" height="1.821" fill="#8b7866"/>
    </g>
  </g>
  <g id="Disegno_23" data-name="Disegno 23">
    <g>
      <rect x="45.383" y="16.757" width="2.068" height="4.156" fill="#8b7866"/>
      <rect x="45.384" y="16.757" width="2.067" height="0.217" fill="silver"/>
      <rect x="45.383" y="20.697" width="2.069" height="0.216" fill="silver"/>
    </g>
  </g>
  <g id="Disegno_23-2" data-name="Disegno 23">
    <g>
      <rect x="49.278" y="16.757" width="2.068" height="4.156" fill="#8b7866"/>
      <rect x="49.279" y="16.757" width="2.067" height="0.217" fill="silver"/>
      <rect x="49.277" y="20.697" width="2.069" height="0.216" fill="silver"/>
    </g>
  </g>
  <g id="Disegno_26" data-name="Disegno 26">
    <g>
      <rect x="25.734" y="11.333" width="7.482" height="3.45" fill="#008b9c"/>
      <rect x="25.734" y="11.333" width="7.482" height="3.45"/>
    </g>
    <rect x="23.53" y="12.544" width="2.789" height="1.012" fill="#b2b2b2"/>
    <rect x="32.14" y="12.562" width="2.79" height="1.012" fill="#b2b2b2"/>
  </g>
  <g id="Artwork_12-3" data-name="Artwork 12">
    <rect x="58.274" y="34.61" width="4.525" height="2.243" fill="#b2b2b2"/>
    <rect x="58.274" y="28.883" width="4.525" height="2.243" fill="#b2b2b2"/>
    <path d="M289.6,442.756a.877.877,0,0,0-.874-.874h-1.749a.878.878,0,0,0-.876.874V443h3.5Z" transform="translate(-227.311 -411.875)" fill="#8b7866"/>
    <path d="M286.1,446.729a.879.879,0,0,0,.876.875h1.749a.878.878,0,0,0,.874-.875v-.244h-3.5Z" transform="translate(-227.311 -411.875)" fill="#8b7866"/>
    <rect x="58.787" y="31.126" width="3.499" height="3.484"/>
  </g>
  <g id="Disegno_8-11" data-name="Disegno 8">
    <path d="M345.877,454.975h1.845v-.007a.9.9,0,0,0,0-1.807v-.006h-1.845a.91.91,0,1,0,0,1.819Z" transform="translate(-227.311 -411.875)" fill="#b2b2b2"/>
    <g>
      <rect x="118.81" y="41.281" width="1.346" height="1.821" fill="#8b7866"/>
      <rect x="118.81" y="41.281" width="1.346" height="1.821" fill="#8b7866"/>
      <rect x="118.81" y="41.281" width="1.346" height="1.821" fill="#8b7866"/>
      <rect x="118.81" y="41.281" width="1.346" height="1.821" fill="#8b7866"/>
    </g>
  </g>
  <g id="Disegno_8-12" data-name="Disegno 8">
    <path d="M351.837,454.975h1.845v-.007a.9.9,0,0,0,0-1.807v-.006h-1.845a.91.91,0,1,0,0,1.819Z" transform="translate(-227.311 -411.875)" fill="#b2b2b2"/>
    <g>
      <rect x="124.77" y="41.281" width="1.346" height="1.821" fill="#8b7866"/>
      <rect x="124.77" y="41.281" width="1.346" height="1.821" fill="#8b7866"/>
      <rect x="124.77" y="41.281" width="1.346" height="1.821" fill="#8b7866"/>
      <rect x="124.77" y="41.281" width="1.346" height="1.821" fill="#8b7866"/>
    </g>
  </g>
  <g id="Disegno_8-13" data-name="Disegno 8">
    <path d="M309.472,433.481h1.845v-.007a.9.9,0,0,0,0-1.806v-.007h-1.845a.91.91,0,1,0,0,1.82Z" transform="translate(-227.311 -411.875)" fill="#b2b2b2"/>
    <g>
      <rect x="82.405" y="19.786" width="1.346" height="1.821" fill="#8b7866"/>
      <rect x="82.405" y="19.786" width="1.346" height="1.821" fill="#8b7866"/>
      <rect x="82.405" y="19.786" width="1.346" height="1.821" fill="#8b7866"/>
      <rect x="82.405" y="19.786" width="1.346" height="1.821" fill="#8b7866"/>
    </g>
  </g>
  <g id="Disegno_8-14" data-name="Disegno 8">
    <path d="M309.472,423.571h1.845v-.008a.9.9,0,0,0,0-1.806v-.007h-1.845a.91.91,0,0,0,0,1.82Z" transform="translate(-227.311 -411.875)" fill="#b2b2b2"/>
    <g>
      <rect x="82.405" y="9.876" width="1.346" height="1.821" fill="#8b7866"/>
      <rect x="82.405" y="9.876" width="1.346" height="1.821" fill="#8b7866"/>
      <rect x="82.405" y="9.876" width="1.346" height="1.821" fill="#8b7866"/>
      <rect x="82.405" y="9.876" width="1.346" height="1.821" fill="#8b7866"/>
    </g>
  </g>
  <g id="Disegno_8-15" data-name="Disegno 8">
    <path d="M335.013,421.409h1.845V421.4a.9.9,0,0,0,0-1.807v-.006h-1.845a.91.91,0,1,0,0,1.82Z" transform="translate(-227.311 -411.875)" fill="#b2b2b2"/>
    <g>
      <rect x="107.946" y="7.714" width="1.346" height="1.821" fill="#8b7866"/>
      <rect x="107.946" y="7.714" width="1.346" height="1.821" fill="#8b7866"/>
      <rect x="107.946" y="7.714" width="1.346" height="1.821" fill="#8b7866"/>
      <rect x="107.946" y="7.714" width="1.346" height="1.821" fill="#8b7866"/>
    </g>
  </g>
  <g id="Disegno_8-16" data-name="Disegno 8">
    <path d="M270,451.052h0v-1.845h-.007a.9.9,0,0,0-1.807,0h-.007v1.845a.91.91,0,1,0,1.82,0Z" transform="translate(-227.311 -411.875)" fill="#b2b2b2"/>
    <g>
      <rect x="40.866" y="37.587" width="1.821" height="1.346" fill="#8b7866"/>
      <rect x="40.866" y="37.587" width="1.821" height="1.346" fill="#8b7866"/>
      <rect x="40.866" y="37.587" width="1.821" height="1.346" fill="#8b7866"/>
      <rect x="40.866" y="37.587" width="1.821" height="1.346" fill="#8b7866"/>
    </g>
  </g>
  <g id="Disegno_8-17" data-name="Disegno 8">
    <path d="M288.757,437.446h0V435.6h-.007a.9.9,0,0,0-1.807,0h-.007v1.845a.91.91,0,1,0,1.82,0Z" transform="translate(-227.311 -411.875)" fill="#b2b2b2"/>
    <g>
      <rect x="59.626" y="23.981" width="1.821" height="1.346" fill="#8b7866"/>
      <rect x="59.626" y="23.981" width="1.821" height="1.346" fill="#8b7866"/>
      <rect x="59.626" y="23.981" width="1.821" height="1.346" fill="#8b7866"/>
      <rect x="59.626" y="23.981" width="1.821" height="1.346" fill="#8b7866"/>
    </g>
  </g>
  <g id="Disegno_8-18" data-name="Disegno 8">
    <path d="M305.591,426.867h0v-1.845h-.007a.9.9,0,0,0-1.807,0h-.006v1.845a.91.91,0,0,0,1.82,0Z" transform="translate(-227.311 -411.875)" fill="#b2b2b2"/>
    <g>
      <rect x="76.46" y="13.402" width="1.821" height="1.346" fill="#8b7866"/>
      <rect x="76.46" y="13.402" width="1.821" height="1.346" fill="#8b7866"/>
      <rect x="76.46" y="13.402" width="1.821" height="1.346" fill="#8b7866"/>
      <rect x="76.46" y="13.402" width="1.821" height="1.346" fill="#8b7866"/>
    </g>
  </g>
  <g id="Disegno_23-3" data-name="Disegno 23">
    <g>
      <rect x="43.254" y="36.465" width="2.068" height="4.156" fill="#8b7866"/>
      <rect x="43.255" y="36.465" width="2.067" height="0.217" fill="silver"/>
      <rect x="43.254" y="40.405" width="2.069" height="0.216" fill="silver"/>
    </g>
  </g>
  <g id="Disegno_23-4" data-name="Disegno 23">
    <g>
      <rect x="98.95" y="41.157" width="4.156" height="2.068" fill="#8b7866"/>
      <rect x="98.95" y="41.157" width="0.217" height="2.067" fill="silver"/>
      <rect x="102.889" y="41.157" width="0.216" height="2.069" fill="silver"/>
    </g>
  </g>
  <g id="Disegno_23-5" data-name="Disegno 23">
    <g>
      <rect x="22.824" y="36.856" width="1.601" height="3.216" fill="#8b7866"/>
      <rect x="22.824" y="36.856" width="1.6" height="0.168" fill="silver"/>
      <rect x="22.823" y="39.905" width="1.601" height="0.167" fill="silver"/>
    </g>
  </g>
  <g id="Disegno_23-6" data-name="Disegno 23">
    <g>
      <rect x="65.283" y="35.252" width="3.216" height="1.601" fill="#8b7866"/>
      <rect x="65.283" y="35.252" width="0.168" height="1.6" fill="silver"/>
      <rect x="68.332" y="35.252" width="0.167" height="1.601" fill="silver"/>
    </g>
  </g>
  <g id="Disegno_23-7" data-name="Disegno 23">
    <g>
      <rect x="65.283" y="32.368" width="3.216" height="1.601" fill="#8b7866"/>
      <rect x="65.283" y="32.368" width="0.168" height="1.6" fill="silver"/>
      <rect x="68.332" y="32.368" width="0.167" height="1.601" fill="silver"/>
    </g>
  </g>
  <g id="Disegno_23-8" data-name="Disegno 23">
    <g>
      <rect x="70.81" y="30.193" width="3.216" height="1.601" fill="#8b7866"/>
      <rect x="70.81" y="30.193" width="0.168" height="1.6" fill="silver"/>
      <rect x="73.859" y="30.193" width="0.167" height="1.601" fill="silver"/>
    </g>
  </g>
  <g id="Disegno_13" data-name="Disegno 13">
    <rect x="26.818" y="37.208" width="9.112" height="5.879"/>
  </g>
  <g id="Disegno_13-2" data-name="Disegno 13">
    <rect x="63.603" y="12.272" width="9.885" height="8.641"/>
  </g>
  <g>
    <g>
      <polyline points="37.482 28.167 37.226 28.157 37.226 28.157 36.97 28.126 36.97 28.126 36.722 28.073 36.722 28.073 36.476 28.003 36.476 28.003 36.236 27.907 36.236 27.907 36.001 27.8 36.001 27.8 35.779 27.669 35.779 27.669 35.572 27.519 35.572 27.519 35.374 27.358 35.374 27.358 35.193 27.177 35.193 27.177 35.023 26.981 35.023 26.981 34.868 26.778 34.868 26.778 34.736 26.561 34.736 26.561 34.618 26.331 34.618 26.331 34.525 26.093 34.525 26.093 34.449 25.849 34.449 25.849 34.392 25.597 34.392 25.597 34.353 25.343 34.353 25.343 34.337 25.087 34.337 25.087 34.341 24.831 34.341 24.831 34.368 24.577 34.368 24.577 34.419 24.321 34.419 24.321 34.482 24.077 34.482 24.077 34.572 23.835 34.572 23.835 34.679 23.602 34.679 23.602 34.8 23.38 34.8 23.38 34.945 23.167 34.945 23.167 35.103 22.962 35.103 22.962 35.279 22.778 35.279 22.778 35.468 22.606 35.468 22.606 35.673 22.446 35.673 22.446 35.89 22.31 35.89 22.31 36.12 22.192 36.12 22.192 36.353 22.087 36.353 22.087 36.593 22.005 36.593 22.005 36.843 21.942 36.843 21.942 37.099 21.899 37.099 21.899 37.355 21.88 37.355 21.88 37.611 21.88 37.611 21.88 37.865 21.899 37.865 21.899 38.12 21.942 38.12 21.942 38.368 22.005 38.368 22.005 38.611 22.087 38.611 22.087 38.845 22.192 38.845 22.192 39.072 22.31 39.072 22.31 39.29 22.446 39.29 22.446 39.493 22.606 39.493 22.606 39.685 22.778 39.685 22.778 39.861 22.962 39.861 22.962 40.019 23.167 40.019 23.167 40.163 23.38 40.163 23.38 40.286 23.602 40.286 23.602 40.392 23.835 40.392 23.835 40.482 24.077 40.482 24.077 40.546 24.321 40.546 24.321 40.593 24.577 40.593 24.577 40.62 24.831 40.62 24.831 40.626 25.087 40.626 25.087 40.611 25.343 40.611 25.343 40.574 25.597 40.574 25.597 40.513 25.849 40.513 25.849 40.441 26.093 40.441 26.093 40.343 26.331 40.343 26.331 40.226 26.561 40.226 26.561 40.093 26.778 40.093 26.778 39.939 26.981 39.939 26.981 39.769 27.177 39.769 27.177 39.589 27.358 39.589 27.358 39.39 27.519 39.39 27.519 39.185 27.669 39.185 27.669 38.962 27.8 38.962 27.8 38.728 27.907 38.728 27.907 38.488 28.003 38.488 28.003 38.242 28.073 38.242 28.073 37.993 28.126 37.993 28.126 37.736 28.157 37.736 28.157 37.482 28.167 37.482 28.167" fill="#e9e9e9"/>
      <polygon points="37.703 27.684 37.913 27.654 38.123 27.614 38.333 27.554 38.543 27.474 38.733 27.374 38.923 27.264 39.103 27.144 39.273 27.004 39.423 26.854 39.563 26.684 39.703 26.514 39.813 26.324 39.913 26.134 39.993 25.934 40.053 25.724 40.103 25.514 40.133 25.294 40.153 25.074 40.143 24.864 40.123 24.644 40.083 24.424 40.023 24.224 39.953 24.014 39.863 23.814 39.753 23.634 39.633 23.444 39.503 23.274 39.353 23.114 39.193 22.974 39.013 22.834 38.833 22.724 38.633 22.624 38.443 22.534 38.233 22.464 38.023 22.414 37.803 22.374 37.593 22.354 37.373 22.354 37.153 22.374 36.943 22.414 36.733 22.464 36.523 22.534 36.323 22.624 36.133 22.724 35.943 22.834 35.773 22.974 35.613 23.114 35.463 23.274 35.333 23.444 35.203 23.634 35.103 23.814 35.013 24.014 34.933 24.224 34.883 24.424 34.843 24.644 34.813 24.864 34.813 25.074 34.823 25.294 34.863 25.514 34.903 25.724 34.973 25.934 35.053 26.134 35.153 26.324 35.263 26.514 35.393 26.684 35.543 26.854 35.693 27.004 35.863 27.144 36.033 27.264 36.223 27.374 36.423 27.474 36.623 27.554 36.833 27.614 37.043 27.654 37.263 27.684 37.483 27.694 37.703 27.684" fill="none"/>
    </g>
    <rect x="35.194" y="30.011" width="4.467" height="1.711" fill="#b2b2b2"/>
    <rect x="35.194" y="18.657" width="4.467" height="1.713" fill="#b2b2b2"/>
    <path d="M261.084,431.878v10.58h7.31v-10.58Zm6.22,5.93-.08.2-.1.19-.11.19-.28.34-.15.15-.17.14-.18.12-.19.11-.19.1-.21.08-.21.06-.21.04-.21.03-.22.01-.22-.01-.22-.03-.21-.04-.21-.06-.2-.08-.2-.1-.19-.11-.17-.12-.17-.14-.15-.15-.15-.17-.13-.17-.11-.19-.1-.19-.08-.2-.07-.21-.04-.21-.04-.22-.01-.22v-.21l.03-.22.04-.22.05-.2.08-.21.09-.2.1-.18.13-.19.13-.17.15-.16.16-.14.17-.14.19-.11.19-.1.2-.09.21-.07.21-.05.21-.04.22-.02h.22l.21.02.22.04.21.05.21.07.19.09.2.1.18.11.18.14.16.14.15.16.13.17.12.19.11.18.09.2.07.21.06.2.04.22.02.22.01.21-.02.22-.03.22-.05.21Z" transform="translate(-227.311 -411.875)" fill="#dadada"/>
  </g>
  <g id="Disegno_8-19" data-name="Disegno 8">
    <path d="M296.626,453.017h0v-1.846h-.007a.9.9,0,0,0-1.807,0h-.007v1.846a.91.91,0,1,0,1.82,0Z" transform="translate(-227.311 -411.875)" fill="#b2b2b2"/>
    <g>
      <rect x="67.495" y="39.552" width="1.821" height="1.346" fill="#8b7866"/>
      <rect x="67.495" y="39.552" width="1.821" height="1.346" fill="#8b7866"/>
      <rect x="67.495" y="39.552" width="1.821" height="1.346" fill="#8b7866"/>
      <rect x="67.495" y="39.552" width="1.821" height="1.346" fill="#8b7866"/>
    </g>
  </g>
  <g id="Disegno_8-20" data-name="Disegno 8">
    <path d="M307.411,453.017h0v-1.846H307.4a.9.9,0,0,0-1.807,0h-.007v1.846a.91.91,0,1,0,1.82,0Z" transform="translate(-227.311 -411.875)" fill="#b2b2b2"/>
    <g>
      <rect x="78.28" y="39.552" width="1.821" height="1.346" fill="#8b7866"/>
      <rect x="78.28" y="39.552" width="1.821" height="1.346" fill="#8b7866"/>
      <rect x="78.28" y="39.552" width="1.821" height="1.346" fill="#8b7866"/>
      <rect x="78.28" y="39.552" width="1.821" height="1.346" fill="#8b7866"/>
    </g>
  </g>
  <g id="Disegno_8-21" data-name="Disegno 8">
    <path d="M293.6,453.017h0v-1.846h-.007a.9.9,0,0,0-1.807,0h-.007v1.846a.91.91,0,1,0,1.82,0Z" transform="translate(-227.311 -411.875)" fill="#b2b2b2"/>
    <g>
      <rect x="64.466" y="39.552" width="1.821" height="1.346" fill="#8b7866"/>
      <rect x="64.466" y="39.552" width="1.821" height="1.346" fill="#8b7866"/>
      <rect x="64.466" y="39.552" width="1.821" height="1.346" fill="#8b7866"/>
      <rect x="64.466" y="39.552" width="1.821" height="1.346" fill="#8b7866"/>
    </g>
  </g>
  <g>
    <g id="Artwork_24" data-name="Artwork 24">
      <rect x="88.422" y="10.195" width="30.703" height="29.988" fill="#b2b2b2"/>
      <polygon points="117.868 38.879 117.868 38.861 117.91 38.861 117.91 11.445 117.868 11.488 117.868 11.479 117.868 11.435 89.913 11.435 89.913 11.523 89.871 11.523 89.871 38.861 89.93 38.861 89.913 38.879 117.868 38.879" fill="#d2d2d2"/>
    </g>
    <g>
      <g>
        <rect x="119.125" y="10.196" width="10.129" height="29.988" fill="#4eabba"/>
        <rect x="119.125" y="10.196" width="10.129" height="29.988" fill="#6d992e"/>
      </g>
      <g>
        <polygon points="123.693 33.649 121.38 36.803 120.267 36.803 120.267 13.577 121.38 13.577 123.693 16.731 123.693 33.649" fill="#008b9c"/>
        <polygon points="128.112 27.954 125.144 31.899 125.144 18.674 128.112 22.619 128.112 27.954" fill="#008b9c"/>
      </g>
    </g>
  </g>
  <g>
    <path d="M80.638,13.338h1.984a.031.031,0,0,1,.031.031v1.983a.03.03,0,0,1-.03.03H80.638a.03.03,0,0,1-.03-.03V13.368A.03.03,0,0,1,80.638,13.338Z" fill="#8ac2cd"/>
    <path d="M83.509,13.338h1.984a.031.031,0,0,1,.031.031v1.983a.03.03,0,0,1-.03.03H83.509a.03.03,0,0,1-.03-.03V13.368A.03.03,0,0,1,83.509,13.338Z" fill="#8ac2cd"/>
    <rect x="80.607" y="16.101" width="2.046" height="2.045" rx="0.03" fill="#8ac2cd"/>
    <path d="M83.509,16.1h1.984a.031.031,0,0,1,.031.031v1.983a.03.03,0,0,1-.03.03H83.509a.03.03,0,0,1-.03-.03V16.131A.03.03,0,0,1,83.509,16.1Z" fill="#8ac2cd"/>
    <g>
      <rect x="81.41" y="14.033" width="3.288" height="3.191" fill="#8b7866"/>
      <path d="M311.8,428.813c0,.11-.058.2-.131.2l-2.609,0c-.071,0-.129-.091-.129-.2v-2.627c0-.106.058-.2.129-.2h2.609c.073,0,.131.091.131.2Z" transform="translate(-227.311 -411.875)" fill="#b2b2b2"/>
      <rect x="84.541" y="14.034" width="0.155" height="3.189" fill="silver"/>
      <rect x="81.41" y="14.031" width="0.154" height="3.192" fill="silver"/>
    </g>
  </g>
  <rect x="70.78" y="35.17" width="6.492" height="6.492"/>
  <rect x="52.642" y="16.54" width="5.013" height="5.013" fill="#008b9c"/>
  <rect x="76.547" y="22.85" width="9.525" height="7.343"/>
  <circle cx="83.479" cy="26.522" r="1.34" fill="#ffe4b9"/>
  <path d="M310.79,437.455a.94.94,0,1,0,.94.94A.939.939,0,0,0,310.79,437.455Zm0,1.59a.649.649,0,0,1-.65-.65.65.65,0,0,1,1.3,0A.649.649,0,0,1,310.79,439.045Z" transform="translate(-227.311 -411.875)" fill="#eba900"/>
  <rect x="71.556" y="22.85" width="4.38" height="5.684"/>
  <g>
    <rect x="63.326" y="22.85" width="7.484" height="5.684"/>
    <circle cx="65.16" cy="25.692" r="1.34" fill="#fdd89a"/>
  </g>
  <g>
    <g>
      <path d="M247.839,411.875v3.69a2.255,2.255,0,0,1-4.51,0v-3.69Z" transform="translate(-227.311 -411.875)" fill="#c3b9af"/>
      <circle cx="18.271" cy="3.705" r="1.471" fill="#fff"/>
      <path d="M247.049,411.875a1.47,1.47,0,0,1-2.94,0Z" transform="translate(-227.311 -411.875)" fill="#fff"/>
    </g>
    <g>
      <path d="M254.955,411.875v3.69a2.255,2.255,0,0,1-4.51,0v-3.69Z" transform="translate(-227.311 -411.875)" fill="#c3b9af"/>
      <circle cx="25.387" cy="3.705" r="1.471" fill="#8b7866"/>
      <path d="M254.165,411.875a1.47,1.47,0,0,1-2.94,0Z" transform="translate(-227.311 -411.875)" fill="#fff"/>
    </g>
    <g>
      <path d="M262.071,411.875v3.69a2.255,2.255,0,0,1-4.51,0v-3.69Z" transform="translate(-227.311 -411.875)" fill="#c3b9af"/>
      <circle cx="32.503" cy="3.705" r="1.471" fill="#8b7866"/>
      <path d="M261.281,411.875a1.47,1.47,0,0,1-2.94,0Z" transform="translate(-227.311 -411.875)" fill="#fff"/>
    </g>
    <g>
      <path d="M269.187,411.875v3.69a2.255,2.255,0,0,1-4.51,0v-3.69Z" transform="translate(-227.311 -411.875)" fill="#c3b9af"/>
      <circle cx="39.618" cy="3.705" r="1.471" fill="#8b7866"/>
      <path d="M268.4,411.875a1.47,1.47,0,1,1-2.94,0Z" transform="translate(-227.311 -411.875)" fill="#fff"/>
    </g>
    <g>
      <path d="M276.3,411.875v3.69a2.255,2.255,0,0,1-4.51,0v-3.69Z" transform="translate(-227.311 -411.875)" fill="#c3b9af"/>
      <circle cx="46.734" cy="3.705" r="1.471" fill="#8b7866"/>
      <path d="M275.512,411.875a1.47,1.47,0,0,1-2.94,0Z" transform="translate(-227.311 -411.875)" fill="#fff"/>
    </g>
    <g>
      <path d="M283.418,411.875v3.69a2.255,2.255,0,0,1-4.51,0v-3.69Z" transform="translate(-227.311 -411.875)" fill="#c3b9af"/>
      <circle cx="53.85" cy="3.705" r="1.471" fill="#8b7866"/>
      <path d="M282.628,411.875a1.47,1.47,0,1,1-2.94,0Z" transform="translate(-227.311 -411.875)" fill="#fff"/>
    </g>
    <g>
      <path d="M290.534,411.875v3.69a2.255,2.255,0,0,1-4.51,0v-3.69Z" transform="translate(-227.311 -411.875)" fill="#c3b9af"/>
      <circle cx="60.966" cy="3.705" r="1.471" fill="#8b7866"/>
      <path d="M289.744,411.875a1.47,1.47,0,0,1-2.94,0Z" transform="translate(-227.311 -411.875)" fill="#fff"/>
    </g>
    <g>
      <path d="M297.65,411.875v3.69a2.255,2.255,0,0,1-4.51,0v-3.69Z" transform="translate(-227.311 -411.875)" fill="#c3b9af"/>
      <circle cx="68.081" cy="3.705" r="1.471" fill="#8b7866"/>
      <path d="M296.86,411.875a1.47,1.47,0,0,1-2.94,0Z" transform="translate(-227.311 -411.875)" fill="#fff"/>
    </g>
    <g>
      <path d="M304.765,411.875v3.69a2.255,2.255,0,0,1-4.51,0v-3.69Z" transform="translate(-227.311 -411.875)" fill="#c3b9af"/>
      <circle cx="75.197" cy="3.705" r="1.471" fill="#8b7866"/>
      <path d="M303.975,411.875a1.47,1.47,0,0,1-2.94,0Z" transform="translate(-227.311 -411.875)" fill="#fff"/>
    </g>
    <g>
      <path d="M311.881,411.875v3.69a2.255,2.255,0,0,1-4.51,0v-3.69Z" transform="translate(-227.311 -411.875)" fill="#c3b9af"/>
      <circle cx="82.313" cy="3.705" r="1.471" fill="#8b7866"/>
      <path d="M311.091,411.875a1.47,1.47,0,0,1-2.94,0Z" transform="translate(-227.311 -411.875)" fill="#fff"/>
    </g>
    <g>
      <path d="M319,411.875v3.69a2.255,2.255,0,0,1-4.51,0v-3.69Z" transform="translate(-227.311 -411.875)" fill="#c3b9af"/>
      <circle cx="89.429" cy="3.705" r="1.471" fill="#8b7866"/>
      <path d="M318.207,411.875a1.47,1.47,0,0,1-2.94,0Z" transform="translate(-227.311 -411.875)" fill="#fff"/>
    </g>
    <g>
      <path d="M326.113,411.875v3.69a2.255,2.255,0,0,1-4.51,0v-3.69Z" transform="translate(-227.311 -411.875)" fill="#c3b9af"/>
      <circle cx="96.544" cy="3.705" r="1.471" fill="#8b7866"/>
      <path d="M325.323,411.875a1.47,1.47,0,0,1-2.94,0Z" transform="translate(-227.311 -411.875)" fill="#fff"/>
    </g>
    <g>
      <path d="M333.228,411.875v3.69a2.255,2.255,0,0,1-4.51,0v-3.69Z" transform="translate(-227.311 -411.875)" fill="#c3b9af"/>
      <circle cx="103.66" cy="3.705" r="1.471" fill="#8b7866"/>
      <path d="M332.438,411.875a1.47,1.47,0,0,1-2.94,0Z" transform="translate(-227.311 -411.875)" fill="#fff"/>
    </g>
    <g>
      <path d="M340.344,411.875v3.69a2.255,2.255,0,0,1-4.51,0v-3.69Z" transform="translate(-227.311 -411.875)" fill="#c3b9af"/>
      <circle cx="110.776" cy="3.705" r="1.471" fill="#8b7866"/>
      <path d="M339.554,411.875a1.47,1.47,0,0,1-2.94,0Z" transform="translate(-227.311 -411.875)" fill="#fff"/>
    </g>
    <g>
      <path d="M347.46,411.875v3.69a2.255,2.255,0,0,1-4.51,0v-3.69Z" transform="translate(-227.311 -411.875)" fill="#c3b9af"/>
      <circle cx="117.892" cy="3.705" r="1.471" fill="#8b7866"/>
      <path d="M346.67,411.875a1.47,1.47,0,0,1-2.94,0Z" transform="translate(-227.311 -411.875)" fill="#fff"/>
    </g>
  </g>
  <g>
    <g>
      <path d="M342.95,462.255v-3.69a2.255,2.255,0,0,1,4.51,0v3.69Z" transform="translate(-227.311 -411.875)" fill="#c3b9af"/>
      <circle cx="117.896" cy="46.675" r="1.471" fill="#8b7866"/>
      <path d="M343.74,462.255a1.47,1.47,0,0,1,2.94,0Z" transform="translate(-227.311 -411.875)" fill="#fff"/>
    </g>
    <g>
      <path d="M335.834,462.255v-3.69a2.255,2.255,0,0,1,4.51,0v3.69Z" transform="translate(-227.311 -411.875)" fill="#c3b9af"/>
      <circle cx="110.78" cy="46.675" r="1.471" fill="#8b7866"/>
      <path d="M336.624,462.255a1.47,1.47,0,0,1,2.94,0Z" transform="translate(-227.311 -411.875)" fill="#fff"/>
    </g>
    <g>
      <path d="M328.718,462.255v-3.69a2.255,2.255,0,0,1,4.51,0v3.69Z" transform="translate(-227.311 -411.875)" fill="#c3b9af"/>
      <circle cx="103.664" cy="46.675" r="1.471" fill="#8b7866"/>
      <path d="M329.508,462.255a1.47,1.47,0,1,1,2.94,0Z" transform="translate(-227.311 -411.875)" fill="#fff"/>
    </g>
    <g>
      <path d="M321.6,462.255v-3.69a2.255,2.255,0,0,1,4.51,0v3.69Z" transform="translate(-227.311 -411.875)" fill="#c3b9af"/>
      <circle cx="96.548" cy="46.675" r="1.471" fill="#8b7866"/>
      <path d="M322.393,462.255a1.47,1.47,0,0,1,2.94,0Z" transform="translate(-227.311 -411.875)" fill="#fff"/>
    </g>
    <g>
      <path d="M314.487,462.255v-3.69a2.255,2.255,0,0,1,4.51,0v3.69Z" transform="translate(-227.311 -411.875)" fill="#c3b9af"/>
      <circle cx="89.433" cy="46.675" r="1.471" fill="#8b7866"/>
      <path d="M315.277,462.255a1.47,1.47,0,1,1,2.94,0Z" transform="translate(-227.311 -411.875)" fill="#fff"/>
    </g>
    <g>
      <path d="M307.371,462.255v-3.69a2.255,2.255,0,0,1,4.51,0v3.69Z" transform="translate(-227.311 -411.875)" fill="#c3b9af"/>
      <circle cx="82.317" cy="46.675" r="1.471" fill="#8b7866"/>
      <path d="M308.161,462.255a1.47,1.47,0,0,1,2.94,0Z" transform="translate(-227.311 -411.875)" fill="#fff"/>
    </g>
    <g>
      <path d="M300.255,462.255v-3.69a2.255,2.255,0,0,1,4.51,0v3.69Z" transform="translate(-227.311 -411.875)" fill="#c3b9af"/>
      <circle cx="75.201" cy="46.675" r="1.471" fill="#8b7866"/>
      <path d="M301.045,462.255a1.47,1.47,0,0,1,2.94,0Z" transform="translate(-227.311 -411.875)" fill="#fff"/>
    </g>
    <g>
      <path d="M293.14,462.255v-3.69a2.255,2.255,0,0,1,4.51,0v3.69Z" transform="translate(-227.311 -411.875)" fill="#c3b9af"/>
      <circle cx="68.085" cy="46.675" r="1.471" fill="#8b7866"/>
      <path d="M293.93,462.255a1.47,1.47,0,0,1,2.94,0Z" transform="translate(-227.311 -411.875)" fill="#fff"/>
    </g>
    <g>
      <path d="M286.024,462.255v-3.69a2.255,2.255,0,0,1,4.51,0v3.69Z" transform="translate(-227.311 -411.875)" fill="#c3b9af"/>
      <circle cx="60.97" cy="46.675" r="1.471" fill="#8b7866"/>
      <path d="M286.814,462.255a1.47,1.47,0,0,1,2.94,0Z" transform="translate(-227.311 -411.875)" fill="#fff"/>
    </g>
    <g>
      <path d="M278.908,462.255v-3.69a2.255,2.255,0,0,1,4.51,0v3.69Z" transform="translate(-227.311 -411.875)" fill="#c3b9af"/>
      <circle cx="53.854" cy="46.675" r="1.471" fill="#8b7866"/>
      <path d="M279.7,462.255a1.47,1.47,0,1,1,2.94,0Z" transform="translate(-227.311 -411.875)" fill="#fff"/>
    </g>
    <g>
      <path d="M271.792,462.255v-3.69a2.255,2.255,0,0,1,4.51,0v3.69Z" transform="translate(-227.311 -411.875)" fill="#c3b9af"/>
      <circle cx="46.738" cy="46.675" r="1.471" fill="#8b7866"/>
      <path d="M272.582,462.255a1.47,1.47,0,1,1,2.94,0Z" transform="translate(-227.311 -411.875)" fill="#fff"/>
    </g>
    <g>
      <path d="M264.677,462.255v-3.69a2.255,2.255,0,0,1,4.51,0v3.69Z" transform="translate(-227.311 -411.875)" fill="#c3b9af"/>
      <circle cx="39.622" cy="46.675" r="1.471" fill="#8b7866"/>
      <path d="M265.467,462.255a1.47,1.47,0,1,1,2.94,0Z" transform="translate(-227.311 -411.875)" fill="#fff"/>
    </g>
    <g>
      <path d="M257.561,462.255v-3.69a2.255,2.255,0,0,1,4.51,0v3.69Z" transform="translate(-227.311 -411.875)" fill="#c3b9af"/>
      <circle cx="32.507" cy="46.675" r="1.471" fill="#8b7866"/>
      <path d="M258.351,462.255a1.47,1.47,0,1,1,2.94,0Z" transform="translate(-227.311 -411.875)" fill="#fff"/>
    </g>
    <g>
      <path d="M250.445,462.255v-3.69a2.255,2.255,0,0,1,4.51,0v3.69Z" transform="translate(-227.311 -411.875)" fill="#c3b9af"/>
      <circle cx="25.391" cy="46.675" r="1.471" fill="#8b7866"/>
      <path d="M251.235,462.255a1.47,1.47,0,0,1,2.94,0Z" transform="translate(-227.311 -411.875)" fill="#fff"/>
    </g>
    <g>
      <path d="M243.329,462.255v-3.69a2.255,2.255,0,0,1,4.51,0v3.69Z" transform="translate(-227.311 -411.875)" fill="#c3b9af"/>
      <circle cx="18.275" cy="46.675" r="1.471" fill="#8b7866"/>
      <path d="M244.119,462.255a1.47,1.47,0,0,1,2.94,0Z" transform="translate(-227.311 -411.875)" fill="#fff"/>
    </g>
  </g>
</svg>
